<?xml version="1.0" encoding="UTF-8"?>
<!DOCTYPE svg PUBLIC "-//W3C//DTD SVG 1.1//EN" "http://www.w3.org/Graphics/SVG/1.1/DTD/svg11.dtd">
<svg xmlns="http://www.w3.org/2000/svg" xmlns:xlink="http://www.w3.org/1999/xlink" width="793px" height="453px" version="1.1"><defs/><g transform="translate(0.5,0.5)"><path d="M 347 120 L 791 120 L 791 271 L 347 271 L 347 231.7 L 331 231.7 L 331 219.7 L 347 219.7 L 347 171.3 L 331 171.3 L 331 159.3 L 347 159.3 Z" fill="#ffffff" stroke="#000000" stroke-miterlimit="10" pointer-events="none"/><path d="M 347 159.3 L 363 159.3 L 363 171.3 L 347 171.3 M 347 219.7 L 363 219.7 L 363 231.7 L 347 231.7" fill="none" stroke="#000000" stroke-miterlimit="10" pointer-events="none"/><g fill="#000000" font-family="Helvetica" font-size="12px"><text x="369.5" y="150.25">Multistandard DALI BUS</text></g><path d="M 17 91 L 141 91 L 141 151 L 17 151 L 17 139 L 1 139 L 1 127 L 17 127 L 17 115 L 1 115 L 1 103 L 17 103 Z" fill="#e6ffcc" stroke="#000000" stroke-miterlimit="10" pointer-events="none"/><path d="M 17 103 L 33 103 L 33 115 L 17 115 M 17 127 L 33 127 L 33 139 L 17 139" fill="none" stroke="#000000" stroke-miterlimit="10" pointer-events="none"/><g fill="#000000" font-family="Helvetica" font-size="12px"><text x="39.5" y="117.75">Python Twisted </text><text x="39.5" y="131.75">server</text></g><path d="M 21 161 L 61 161 L 61 175 L 301 175 L 301 341 L 21 341 L 21 175 Z" fill="#e6ffcc" stroke="#000000" stroke-miterlimit="10" pointer-events="none"/><path d="M 21 175 L 61 175" fill="none" stroke="#000000" stroke-miterlimit="10" pointer-events="none"/><g fill="#000000" font-family="Helvetica" font-weight="bold" text-anchor="middle" font-size="12px"><text x="160.75" y="210.75">PyDALI</text></g><path d="M 34 221 L 74 221 L 74 235 L 289 235 L 289 331 L 34 331 L 34 235 Z" fill="#e5fccb" stroke="#000000" stroke-miterlimit="10" pointer-events="none"/><path d="M 34 235 L 74 235" fill="none" stroke="#000000" stroke-miterlimit="10" pointer-events="none"/><g fill="#000000" font-family="Helvetica" font-weight="bold" text-anchor="middle" font-size="12px"><text x="161.25" y="256.75">PySicstus</text></g><path d="M 71 261 L 111 261 L 111 275 L 191 275 L 191 321 L 71 321 L 71 275 Z" fill="#e9ffcf" stroke="#000000" stroke-miterlimit="10" pointer-events="none"/><path d="M 71 275 L 111 275" fill="none" stroke="#000000" stroke-miterlimit="10" pointer-events="none"/><g fill="#000000" font-family="Helvetica" font-weight="bold" text-anchor="middle" font-size="12px"><text x="130.75" y="299.75">pexpect</text></g><path d="M 95 391 L 289 391 L 289 451 L 95 451 L 95 439 L 79 439 L 79 427 L 95 427 L 95 415 L 79 415 L 79 403 L 95 403 Z" fill="#ccffff" stroke="#000000" stroke-miterlimit="10" pointer-events="none"/><path d="M 95 403 L 111 403 L 111 415 L 95 415 M 95 427 L 111 427 L 111 439 L 95 439" fill="none" stroke="#000000" stroke-miterlimit="10" pointer-events="none"/><g fill="#000000" font-family="Helvetica" font-size="12px"><text x="117.5" y="424.75">Sicstus Prolog process</text></g><path d="M 131 336.99 L 131 346.49 Q 131 356 141 356 L 174 356 Q 184 356 184 366 L 184 388.76" fill="none" stroke="#000000" stroke-miterlimit="10" pointer-events="none"/><path d="M 131 321.99 L 135.41 329.49 L 131 336.99 L 126.59 329.49 Z" fill="none" stroke="#000000" stroke-miterlimit="10" pointer-events="none"/><path d="M 177.5 376.88 L 184 389.88 L 190.5 376.88" fill="none" stroke="#000000" stroke-miterlimit="10" pointer-events="none"/><g fill="#000000" font-family="Helvetica" font-size="11px"><rect fill="#ffffff" stroke="none" x="133" y="306" width="8" height="14" stroke-width="0"/><text x="133" y="315">n</text></g><path d="M 206 46 L 256 46 L 266 56 L 266 196 L 216 196 L 206 186 L 206 46 Z" fill="#ffffcc" stroke="#000000" stroke-miterlimit="10" transform="rotate(90,236,121)" pointer-events="none"/><path d="M 216 196 L 216 56 L 206 46 M 216 56 L 266 56" fill="none" stroke="#000000" stroke-miterlimit="10" transform="rotate(90,236,121)" pointer-events="none"/><g fill="#000000" font-family="Helvetica" text-decoration="underline" font-size="12px"><text x="165.5" y="117.5">HTML5/CSS/JS</text><text x="165.5" y="131.5">files</text></g><rect x="54" y="1" width="250" height="40" fill="none" stroke="none" pointer-events="none"/><g fill="#000000" font-family="Helvetica" text-anchor="middle" font-size="18px"><text x="179" y="28">Web DALI Software components</text></g><path d="M 387 171 L 511 171 L 511 230 L 387 230 L 387 218.3 L 371 218.3 L 371 206.3 L 387 206.3 L 387 194.7 L 371 194.7 L 371 182.7 L 387 182.7 Z" fill="#ffcccc" stroke="#000000" stroke-miterlimit="10" pointer-events="none"/><path d="M 387 182.7 L 403 182.7 L 403 194.7 L 387 194.7 M 387 206.3 L 403 206.3 L 403 218.3 L 387 218.3" fill="none" stroke="#000000" stroke-miterlimit="10" pointer-events="none"/><g fill="#000000" font-family="Helvetica" font-size="12px"><text x="409.5" y="197.25">R.O.S.</text><text x="409.5" y="211.25">channels</text></g><rect x="391" y="391" width="80" height="40" fill="none" stroke="none" pointer-events="none"/><g fill="#000000" font-family="Helvetica" text-anchor="middle" font-size="12px"><text x="431" y="408">C</text><text x="431" y="422">C++</text></g><rect x="491" y="391" width="80" height="40" fill="none" stroke="none" pointer-events="none"/><g fill="#000000" font-family="Helvetica" text-anchor="middle" font-size="12px"><text x="531" y="401">C#</text><text x="531" y="415">C++</text><text x="531" y="429">Python</text></g><rect x="611" y="391" width="80" height="40" fill="none" stroke="none" pointer-events="none"/><g fill="#000000" font-family="Helvetica" text-anchor="middle" font-size="12px"><text x="651" y="408">C#</text><text x="651" y="422">LSL</text></g><path d="M 577 137 L 751 137 L 751 196 L 577 196 L 577 184.3 L 561 184.3 L 561 172.3 L 577 172.3 L 577 160.7 L 561 160.7 L 561 148.7 L 577 148.7 Z" fill="#ffcccc" stroke="#000000" stroke-miterlimit="10" pointer-events="none"/><path d="M 577 148.7 L 593 148.7 L 593 160.7 L 577 160.7 M 577 172.3 L 593 172.3 L 593 184.3 L 577 184.3" fill="none" stroke="#000000" stroke-miterlimit="10" pointer-events="none"/><g fill="#000000" font-family="Helvetica" font-size="12px"><text x="599.5" y="163.25">REDIS</text><text x="599.5" y="177.25">publish/subscribe channels</text></g><path d="M 337 291 L 791 291 L 791 442 L 337 442 L 337 402.7 L 321 402.7 L 321 390.7 L 337 390.7 L 337 342.3 L 321 342.3 L 321 330.3 L 337 330.3 Z" fill="#ffffff" stroke="#000000" stroke-miterlimit="10" pointer-events="none"/><path d="M 337 330.3 L 353 330.3 L 353 342.3 L 337 342.3 M 337 390.7 L 353 390.7 L 353 402.7 L 337 402.7" fill="none" stroke="#000000" stroke-miterlimit="10" pointer-events="none"/><g fill="#000000" font-family="Helvetica" font-size="12px"><text x="359.5" y="321.25">Virtual Robotics Third Party Servers</text></g><path d="M 377 331 L 451 331 L 451 421 L 377 421 L 377 400 L 361 400 L 361 388 L 377 388 L 377 364 L 361 364 L 361 352 L 377 352 Z" fill="#e6e6e6" stroke="#000000" stroke-miterlimit="10" pointer-events="none"/><path d="M 377 352 L 393 352 L 393 364 L 377 364 M 377 388 L 393 388 L 393 400 L 377 400" fill="none" stroke="#000000" stroke-miterlimit="10" pointer-events="none"/><g fill="#000000" font-family="Helvetica" font-size="12px"><text x="399.5" y="372.75">Gazebo</text><text x="399.5" y="386.75">robots</text></g><path d="M 477 331 L 551 331 L 551 421 L 477 421 L 477 400 L 461 400 L 461 388 L 477 388 L 477 364 L 461 364 L 461 352 L 477 352 Z" fill="#e6e6e6" stroke="#000000" stroke-miterlimit="10" pointer-events="none"/><path d="M 477 352 L 493 352 L 493 364 L 477 364 M 477 388 L 493 388 L 493 400 L 477 400" fill="none" stroke="#000000" stroke-miterlimit="10" pointer-events="none"/><g fill="#000000" font-family="Helvetica" font-size="12px"><text x="499.5" y="372.75">Unity3D</text><text x="499.5" y="386.75">objects</text></g><path d="M 577 331 L 685 331 L 685 421 L 577 421 L 577 400 L 561 400 L 561 388 L 577 388 L 577 364 L 561 364 L 561 352 L 577 352 Z" fill="#e6e6e6" stroke="#000000" stroke-miterlimit="10" pointer-events="none"/><path d="M 577 352 L 593 352 L 593 364 L 577 364 M 577 388 L 593 388 L 593 400 L 577 400" fill="none" stroke="#000000" stroke-miterlimit="10" pointer-events="none"/><g fill="#000000" font-family="Helvetica" font-size="12px"><text x="599.5" y="372.75">OpenSimulator</text><text x="599.5" y="386.75">NPC avatars</text></g><path d="M 578 202 L 752 202 L 752 261 L 578 261 L 578 249.3 L 562 249.3 L 562 237.3 L 578 237.3 L 578 225.7 L 562 225.7 L 562 213.7 L 578 213.7 Z" fill="#ffcccc" stroke="#000000" stroke-miterlimit="10" pointer-events="none"/><path d="M 578 213.7 L 594 213.7 L 594 225.7 L 578 225.7 M 578 237.3 L 594 237.3 L 594 249.3 L 578 249.3" fill="none" stroke="#000000" stroke-miterlimit="10" pointer-events="none"/><g fill="#000000" font-family="Helvetica" font-size="12px"><text x="600.5" y="228.25">YARP</text><text x="600.5" y="242.25">sensors/variables</text></g><path d="M 707 331 L 781 331 L 781 421 L 707 421 L 707 400 L 691 400 L 691 388 L 707 388 L 707 364 L 691 364 L 691 352 L 707 352 Z" fill="#e6e6e6" stroke="#000000" stroke-miterlimit="10" pointer-events="none"/><path d="M 707 352 L 723 352 L 723 364 L 707 364 M 707 388 L 723 388 L 723 400 L 707 400" fill="none" stroke="#000000" stroke-miterlimit="10" pointer-events="none"/><g fill="#000000" font-family="Helvetica" font-size="12px"><text x="729.5" y="372.75">iCub</text><text x="729.5" y="386.75">robot</text></g></g></svg>